<?xml version="1.0" encoding="iso-8859-1"?>
<!-- Generator: Adobe Illustrator 19.0.0, SVG Export Plug-In . SVG Version: 6.00 Build 0)  -->
<svg version="1.1" id="Layer_1" xmlns="http://www.w3.org/2000/svg" xmlns:xlink="http://www.w3.org/1999/xlink" x="0px" y="0px"
	 viewBox="0 0 480 480" style="enable-background:new 0 0 480 480;" xml:space="preserve">
<g>
	<path style="fill:#D84444;" d="M8,200v32c0,17.672,14.328,32,32,32v-64H8z"/>
	<path style="fill:#D84444;" d="M431.368,408c-1.352,2.328-2.848,4.552-4.464,6.68c-0.072,0.096-0.144,0.192-0.216,0.288
		c-3.272,4.24-7.04,8.064-11.256,11.368c-0.208,0.16-0.424,0.312-0.632,0.472c-1.84,1.408-3.752,2.704-5.736,3.912
		c-0.376,0.224-0.744,0.464-1.12,0.68c-4.416,2.56-9.168,4.592-14.168,6.04c-0.632,0.184-1.288,0.328-1.928,0.496
		c-1.896,0.48-3.816,0.88-5.768,1.184c-0.728,0.112-1.456,0.248-2.192,0.336c-2.6,0.328-5.216,0.544-7.888,0.544
		s-5.288-0.216-7.872-0.536c-0.736-0.088-1.464-0.216-2.192-0.336c-1.952-0.312-3.88-0.704-5.768-1.184
		c-0.64-0.168-1.296-0.312-1.928-0.496c-5-1.448-9.752-3.48-14.168-6.04c-0.376-0.216-0.744-0.456-1.12-0.68
		c-1.984-1.2-3.904-2.504-5.736-3.912c-0.208-0.16-0.424-0.312-0.632-0.472c-4.216-3.304-7.984-7.128-11.256-11.368
		c-0.072-0.096-0.144-0.192-0.216-0.288c-1.624-2.128-3.12-4.352-4.464-6.68l0,0H72v32c0,17.672,14.328,32,32,32h336
		c17.672,0,32-14.328,32-32v-32L431.368,408L431.368,408z"/>
	<path style="fill:#D84444;" d="M40,304v32c0,17.672,14.328,32,32,32v-64H40z"/>
</g>
<path style="fill:#EDEDED;" d="M440,112h-32V8H8v192h32v64v40h32v64v40h248.632l0,0l0,0c-2.64-4.56-4.712-9.48-6.184-14.648
	c-0.128-0.456-0.232-0.912-0.352-1.368c-0.52-2.024-0.944-4.08-1.264-6.168c-0.104-0.648-0.216-1.296-0.296-1.952
	c-0.32-2.584-0.536-5.2-0.536-7.864c0-35.344,28.656-64,64-64s64,28.656,64,64c0,2.664-0.216,5.28-0.528,7.856
	c-0.08,0.656-0.2,1.304-0.296,1.952c-0.32,2.096-0.744,4.152-1.264,6.168c-0.12,0.456-0.224,0.92-0.352,1.368
	c-1.472,5.168-3.544,10.088-6.184,14.648l0,0l0,0H472V216h-32V112z"/>
<path style="fill:#12ADDD;" d="M325.32,414.976c3.264,4.24,7.048,8.064,11.256,11.368c0.208,0.16,0.424,0.312,0.632,0.472
	c1.84,1.408,3.752,2.704,5.736,3.912c0.376,0.224,0.744,0.464,1.12,0.68c4.424,2.552,9.16,4.6,14.168,6.04
	c0.632,0.184,1.288,0.328,1.928,0.496c1.896,0.48,3.816,0.88,5.768,1.184c0.728,0.112,1.456,0.248,2.192,0.336
	c2.592,0.32,5.208,0.536,7.88,0.536s5.288-0.216,7.872-0.536c0.736-0.088,1.464-0.216,2.192-0.336
	c1.952-0.312,3.88-0.704,5.768-1.184c0.64-0.168,1.296-0.312,1.928-0.496c5.008-1.448,9.752-3.488,14.168-6.04
	c0.376-0.216,0.744-0.456,1.12-0.68c1.984-1.2,3.904-2.504,5.736-3.912c0.208-0.16,0.424-0.312,0.632-0.472
	c4.208-3.304,7.992-7.128,11.256-11.368c0.072-0.096,0.144-0.192,0.216-0.288c1.624-2.128,3.12-4.352,4.464-6.68l0,0
	c2.64-4.56,4.712-9.48,6.184-14.648c0.128-0.456,0.232-0.912,0.352-1.368c0.52-2.024,0.944-4.08,1.264-6.168
	c0.104-0.648,0.216-1.296,0.296-1.952C439.784,381.28,440,378.664,440,376c0-35.344-28.656-64-64-64s-64,28.656-64,64
	c0,2.664,0.216,5.28,0.528,7.856c0.08,0.656,0.2,1.304,0.296,1.952c0.32,2.096,0.744,4.152,1.264,6.168
	c0.12,0.456,0.224,0.92,0.352,1.368c1.472,5.168,3.544,10.088,6.184,14.648l0,0c1.352,2.328,2.848,4.552,4.464,6.68
	C325.176,414.784,325.24,414.88,325.32,414.976z"/>
<g>
	<path style="fill:#EDEDED;" d="M407.936,431.408c-4.424,2.552-9.16,4.6-14.168,6.04C398.768,436,403.52,433.968,407.936,431.408z"
		/>
	<path style="fill:#EDEDED;" d="M325.32,414.976c3.272,4.24,7.04,8.064,11.256,11.368
		C332.368,423.032,328.584,419.216,325.32,414.976z"/>
	<path style="fill:#EDEDED;" d="M358.232,437.448c-5.008-1.448-9.752-3.488-14.168-6.04C348.48,433.968,353.232,436,358.232,437.448
		z"/>
	<path style="fill:#EDEDED;" d="M415.432,426.344c4.216-3.304,7.984-7.128,11.256-11.368
		C423.416,419.216,419.632,423.032,415.432,426.344z"/>
</g>
<g>
	<path style="fill:#2D2D2D;" d="M472,208h-24v-96c0-4.416-3.584-8-8-8h-24V8c0-4.416-3.584-8-8-8H8C3.584,0,0,3.584,0,8v192v32
		c0,19.312,13.768,35.472,32,39.192V304v32c0,19.312,13.768,35.472,32,39.192V408v32c0,22.056,17.944,40,40,40h336
		c22.056,0,40-17.944,40-40v-32V216C480,211.584,476.416,208,472,208z M464,400h-20.152c0.096-0.272,0.16-0.56,0.256-0.84
		c0.432-1.264,0.824-2.544,1.184-3.832c0.248-0.88,0.472-1.76,0.68-2.648c0.28-1.176,0.552-2.352,0.776-3.552
		c0.224-1.184,0.384-2.376,0.544-3.568c0.128-0.952,0.28-1.896,0.368-2.856C447.872,380.472,448,378.24,448,376
		c0-39.696-32.304-72-72-72s-72,32.304-72,72c0,2.24,0.128,4.472,0.336,6.704c0.088,0.968,0.24,1.904,0.368,2.856
		c0.16,1.192,0.328,2.384,0.544,3.568c0.224,1.2,0.496,2.376,0.776,3.552c0.216,0.888,0.44,1.768,0.68,2.648
		c0.36,1.296,0.752,2.568,1.184,3.832c0.096,0.28,0.16,0.56,0.256,0.84H80v-32v-64v-80h360h24V400z M420.52,409.832
		c-0.128,0.168-0.248,0.344-0.376,0.504c-2.936,3.76-6.312,7.112-10.032,9.976c-0.128,0.096-0.248,0.184-0.376,0.28
		c-1.848,1.4-3.776,2.696-5.776,3.856c-0.016,0.008-0.032,0.024-0.048,0.032c-4.056,2.344-8.408,4.152-12.936,5.424
		c-0.36,0.096-0.72,0.184-1.08,0.28c-1.816,0.472-3.672,0.832-5.536,1.12c-0.512,0.08-1.024,0.176-1.536,0.232
		C380.568,431.824,378.296,432,376,432s-4.568-0.176-6.816-0.456c-0.52-0.064-1.024-0.16-1.536-0.232
		c-1.872-0.288-3.72-0.648-5.536-1.12c-0.36-0.096-0.72-0.176-1.08-0.28c-4.528-1.272-8.88-3.08-12.936-5.424
		c-0.016-0.008-0.032-0.024-0.048-0.032c-2-1.16-3.928-2.456-5.776-3.856c-0.128-0.096-0.248-0.184-0.376-0.28
		c-3.728-2.872-7.104-6.216-10.032-9.976c-0.128-0.168-0.248-0.336-0.376-0.504c-1.36-1.784-2.616-3.648-3.768-5.608
		c-0.072-0.128-0.16-0.248-0.232-0.384c-2.352-4.088-4.152-8.44-5.4-12.928c-0.104-0.368-0.192-0.744-0.288-1.112
		c-0.472-1.824-0.832-3.672-1.112-5.536c-0.072-0.496-0.168-0.992-0.232-1.496C320.176,380.52,320,378.264,320,376
		c0-30.88,25.12-56,56-56s56,25.12,56,56c0,2.264-0.176,4.52-0.448,6.768c-0.064,0.504-0.152,1-0.232,1.496
		c-0.28,1.864-0.64,3.712-1.112,5.536c-0.096,0.368-0.184,0.744-0.288,1.112c-1.256,4.488-3.056,8.84-5.4,12.928
		c-0.072,0.128-0.152,0.248-0.232,0.384C423.144,406.176,421.88,408.048,420.52,409.832z M432,208H243.312l-10.808-10.808
		c1.144-3.024,4.072-5.192,7.496-5.192c4.408,0,8,3.592,8,8h16c0-10.416-6.712-19.216-16-22.528V168h-16v9.472
		c-9.288,3.312-16,12.112-16,22.528c0,2.12,0.84,4.16,2.344,5.656l2.344,2.344H72c-4.416,0-8,3.584-8,8v80H48v-32v-64v-80h360h24
		V208z M16,16h384v88H211.312l-10.808-10.808C201.648,90.168,204.576,88,208,88c4.408,0,8,3.592,8,8h16
		c0-10.416-6.712-19.216-16-22.528V64h-16v9.472c-9.288,3.312-16,12.112-16,22.528c0,2.12,0.84,4.16,2.344,5.656l2.344,2.344H40
		c-4.416,0-8,3.584-8,8v80H16V16z M16,232v-24h16v46.632C22.688,251.328,16,242.432,16,232z M48,336v-24h16v46.632
		C54.688,355.328,48,346.432,48,336z M464,440c0,13.232-10.768,24-24,24H104c-13.232,0-24-10.768-24-24v-24h236.176
		c1.592,2.376,3.352,4.624,5.216,6.792c0.256,0.296,0.52,0.568,0.784,0.856c1.608,1.808,3.296,3.536,5.072,5.176
		c0.36,0.328,0.712,0.656,1.08,0.984c1.968,1.744,4.016,3.392,6.168,4.92c0.072,0.048,0.136,0.104,0.208,0.16
		c4.648,3.272,9.688,5.984,15.048,8.088c0.296,0.12,0.6,0.216,0.896,0.328c2.24,0.848,4.52,1.576,6.856,2.2
		c0.576,0.152,1.152,0.304,1.736,0.448c2.12,0.512,4.272,0.912,6.464,1.224c0.656,0.096,1.296,0.224,1.952,0.296
		c2.744,0.32,5.52,0.528,8.344,0.528s5.6-0.208,8.344-0.528c0.656-0.08,1.296-0.2,1.952-0.296c2.184-0.312,4.344-0.72,6.464-1.224
		c0.584-0.144,1.152-0.288,1.736-0.448c2.336-0.624,4.624-1.352,6.856-2.2c0.296-0.112,0.6-0.216,0.896-0.328
		c5.36-2.112,10.4-4.824,15.048-8.088c0.072-0.048,0.136-0.104,0.208-0.16c2.152-1.528,4.2-3.176,6.168-4.92
		c0.368-0.32,0.72-0.648,1.08-0.984c1.776-1.64,3.472-3.36,5.072-5.176c0.256-0.288,0.528-0.568,0.784-0.856
		c1.856-2.168,3.616-4.416,5.216-6.792H464V440z"/>
	<path style="fill:#2D2D2D;" d="M272,296c4.408,0,8,3.592,8,8h16c0-10.416-6.712-19.216-16-22.528V272h-16v9.472
		c-9.288,3.312-16,12.112-16,22.528c0,2.52,1.184,4.888,3.2,6.4l28.032,21.024C277.944,334.128,275.184,336,272,336
		c-4.408,0-8-3.592-8-8h-16c0,10.416,6.712,19.216,16,22.528V360h16v-9.472c9.288-3.312,16-12.112,16-22.528
		c0-2.52-1.184-4.888-3.2-6.4l-28.032-21.024C266.056,297.872,268.816,296,272,296z"/>
	<polygon style="fill:#2D2D2D;" points="384,344 368,344 368,368 344,368 344,384 368,384 368,408 384,408 384,384 408,384 408,368 
		384,368 	"/>
</g>
<g>
</g>
<g>
</g>
<g>
</g>
<g>
</g>
<g>
</g>
<g>
</g>
<g>
</g>
<g>
</g>
<g>
</g>
<g>
</g>
<g>
</g>
<g>
</g>
<g>
</g>
<g>
</g>
<g>
</g>
</svg>
