<?xml version="1.0" encoding="utf-8"?>
<!-- Generator: Adobe Illustrator 22.0.1, SVG Export Plug-In . SVG Version: 6.00 Build 0)  -->
<svg version="1.1" id="Layer_1" xmlns="http://www.w3.org/2000/svg" xmlns:xlink="http://www.w3.org/1999/xlink" x="0px" y="0px"
	 viewBox="0 0 146 116" style="enable-background:new 0 0 146 116;" xml:space="preserve">
<style type="text/css">
	.st0{opacity:0.3;fill:#FF6464;}
	.st1{opacity:0.47;fill:#BE4B50;}
	.st2{fill:#354052;}
	.st3{fill:#FF6464;}
	.st4{fill:#BFC7D2;}
	.st5{fill:#707487;}
	.st6{fill:#C7CFE2;}
	.st7{fill:#D2555A;}
	.st8{fill:#959CB3;}
	.st9{fill:#D7DEED;}
	.st10{fill:#BE4B50;}
</style>
<title>Icon 2</title>
<desc>Created with Sketch.</desc>
<g id="_x33_0---First-Touch-with-App" transform="translate(-717.000000, -265.000000)">
	<g id="Get-Started" transform="translate(205.000000, 214.000000)">
		<g id="_x32_" transform="translate(400.000000, 0.000000)">
			<g id="Icon-2" transform="translate(112.000000, 51.000000)">
				<path id="Base" class="st0" d="M43.9,101C28.9,91.2,19,74.2,19,55C19,24.6,43.6,0,74,0c30.4,0,55,24.6,55,55
					c0,19.2-9.9,36.2-24.9,46H43.9z"/>
				<path id="Lighter-Base" class="st1" d="M74,19c19.3,0,35,15.7,35,35S93.3,89,74,89S39,73.3,39,54S54.7,19,74,19"/>
				<path id="Lines" class="st2" d="M118.5,99h-94c-0.8,0-1.5,0.7-1.5,1.5s0.7,1.5,1.5,1.5h94c0.8,0,1.5-0.7,1.5-1.5
					S119.3,99,118.5,99 M123.5,99c-0.8,0-1.5,0.7-1.5,1.5s0.7,1.5,1.5,1.5s1.5-0.7,1.5-1.5S124.3,99,123.5,99"/>
				<path id="Lines_1_" class="st3" d="M93.5,106h-54c-0.8,0-1.5,0.7-1.5,1.5s0.7,1.5,1.5,1.5h54c0.8,0,1.5-0.7,1.5-1.5
					S94.3,106,93.5,106 M105.5,106h-7c-0.8,0-1.5,0.7-1.5,1.5s0.7,1.5,1.5,1.5h7c0.8,0,1.5-0.7,1.5-1.5S106.3,106,105.5,106
					 M83.5,113h-34c-0.8,0-1.5,0.7-1.5,1.5s0.7,1.5,1.5,1.5h34c0.8,0,1.5-0.7,1.5-1.5S84.3,113,83.5,113 M91.5,113h-3
					c-0.8,0-1.5,0.7-1.5,1.5s0.7,1.5,1.5,1.5h3c0.8,0,1.5-0.7,1.5-1.5S92.3,113,91.5,113"/>
				<path id="Decoration" class="st4" d="M138.5,4c-0.8,0-1.5,0.7-1.5,1.5s0.7,1.5,1.5,1.5s1.5-0.7,1.5-1.5S139.3,4,138.5,4 M1.5,41
					C0.7,41,0,41.7,0,42.5S0.7,44,1.5,44S3,43.3,3,42.5S2.3,41,1.5,41 M21,2h-1V1c0-0.6-0.4-1-1-1s-1,0.4-1,1v1h-1c-0.6,0-1,0.4-1,1
					s0.4,1,1,1h1v1c0,0.6,0.4,1,1,1s1-0.4,1-1V4h1c0.6,0,1-0.4,1-1S21.6,2,21,2 M8,71H7v-1c0-0.6-0.4-1-1-1s-1,0.4-1,1v1H4
					c-0.6,0-1,0.4-1,1s0.4,1,1,1h1v1c0,0.6,0.4,1,1,1s1-0.4,1-1v-1h1c0.6,0,1-0.4,1-1S8.6,71,8,71 M145,34h-1v-1c0-0.6-0.4-1-1-1
					s-1,0.4-1,1v1h-1c-0.6,0-1,0.4-1,1c0,0.6,0.4,1,1,1h1v1c0,0.6,0.4,1,1,1s1-0.4,1-1v-1h1c0.6,0,1-0.4,1-1
					C146,34.4,145.6,34,145,34"/>
			</g>
		</g>
	</g>
</g>
<g>
	<path class="st5" d="M100.8,19.2l-3-12.6l2.8-0.7c1.6-0.4,3.1,0.6,3.5,2.1L116,58.6c0.4,1.6-0.6,3.1-2.1,3.5l-2.8,0.7l-6.9-29.5"/>
	<path class="st6" d="M97.8,6.5c-5.6,7.2-14.2,17-31.8,22.2L72.6,57c18.1-3.2,30.2,1.7,38.4,5.7L97.8,6.5z"/>
	<path class="st7" d="M61.8,29.8l-26.7,6.3c-4.7,1.1-7.5,5.8-6.4,10.4l1.3,5.6l1.3,5.6c1.1,4.7,5.8,7.5,10.4,6.4l26.7-6.3
		c1.4-0.3,2.9-0.6,4.2-0.9L66,28.7C64.7,29.1,63.3,29.5,61.8,29.8z"/>
	<path class="st6" d="M107.8,23.9c4.3,0.3,8.2,3.3,9.2,7.8c1,4.4-1,8.9-4.8,11.1"/>
	<g>
		<polygon class="st5" points="99.4,13.5 97.8,6.5 97.8,6.5 101.9,24.1 		"/>
		<path class="st5" d="M112.5,56.3l-2.8,0.7l0,0c0,0,0,0,0,0l1.3,5.7l0,0l0,0l2.8-0.7c1.6-0.4,2.5-1.9,2.1-3.5l-1.3-5.5
			C114.9,54.5,114,56,112.5,56.3z"/>
	</g>
	<path class="st6" d="M71.3,51.3C71.3,51.3,71.3,51.3,71.3,51.3l1.3,5.7c18.1-3.2,30.2,1.7,38.4,5.7l-1.3-5.7
		C101.5,53,89.4,48.1,71.3,51.3z"/>
	<path class="st7" d="M67.1,52.2l-26.7,6.3c-4.7,1.1-9.3-1.8-10.4-6.4l-1.3-5.6l-0.1-0.3c0,0.1,0.1,0.3,0.1,0.4l1.3,5.6l1.3,5.6
		c1.1,4.7,5.8,7.5,10.4,6.4l26.7-6.3c1.4-0.3,2.9-0.6,4.2-0.9l-1.3-5.7C69.9,51.6,68.5,51.9,67.1,52.2z"/>
	<path class="st8" d="M100.6,5.9l-2.8,0.7l1.6,6.9l2.5,10.6l7.7,32.9l0,0l0,0l2.8-0.7c1.5-0.3,2.4-1.8,2.2-3.3L104.1,8
		C103.7,6.5,102.1,5.5,100.6,5.9z"/>
	<g>
		<polygon class="st9" points="100.8,19.2 97.8,6.7 103.3,29.8 		"/>
		<path class="st9" d="M101.9,24.1L97.8,6.5l0,0l0,0.1l2.9,12.5l2.5,10.7l6.4,27.1c0,0,0,0,0,0l-6.9-29.5L101.9,24.1z"/>
		<path class="st9" d="M103.3,29.8L97.8,6.7l0-0.1l0,0l0,0c-5.6,7.2-14.2,17-31.8,22.2l5.3,22.6c18.1-3.2,30.1,1.7,38.3,5.6
			l-5.6-23.8L103.3,29.8z"/>
		<polygon class="st9" points="97.8,6.7 97.8,6.5 97.8,6.5 		"/>
		<polygon class="st9" points="104.1,33.2 109.7,57 109.7,57 103.3,29.8 		"/>
		<polygon class="st9" points="96.5,1 96.5,0.9 96.5,0.9 		"/>
		<polygon class="st9" points="101.9,24.1 102.7,27.5 109.7,57 109.7,57 		"/>
	</g>
	<g>
		<path class="st3" d="M66,28.7l5.3,22.6c0,0,0,0,0,0L66,28.7C66,28.7,66,28.7,66,28.7z"/>
		<path class="st3" d="M30,52c1.1,4.7,5.8,7.5,10.4,6.4l26.7-6.3c1.4-0.3,2.9-0.6,4.2-0.9L66,28.7c-1.3,0.4-2.7,0.8-4.2,1.1
			l-26.7,6.3c-4.5,1.1-7.4,5.5-6.5,10l0.1,0.3L30,52z"/>
	</g>
	<path class="st9" d="M115.9,28.9c-1.7-2.9-4.8-4.8-8.1-5l3.1,13.1C113.8,35.3,115.7,32.3,115.9,28.9z"/>
	<path class="st7" d="M62.5,58.9l-14,3.3L59.9,93c0.8,2.1,2.9,3.2,5.1,2.7l5.6-1.3c2.5-0.6,4-3.3,3.1-5.7L62.5,58.9z"/>
	<polygon class="st10" points="62.8,59.2 48.8,62.5 51.2,69.2 65.2,65.9 	"/>
	<path d="M101.8,23.5C101.8,23.5,101.8,23.5,101.8,23.5c-0.7,0.2-1.2,0.9-1,1.6l0.7,2.8c0.2,0.7,0.9,1.2,1.6,1c0,0,0,0,0,0
		c0.7-0.2,1.2-0.9,1-1.6l-0.7-2.8C103.2,23.8,102.5,23.3,101.8,23.5z"/>
	<path d="M118.3,31.3c-1.1-4.6-4.9-8-9.5-8.7l-3.5-14.9c-0.3-1.1-0.9-2-1.9-2.6c-1-0.6-2.1-0.8-3.2-0.5c0,0,0,0,0,0l-2.8,0.7
		c0,0,0,0-0.1,0c0,0,0,0-0.1,0c0,0,0,0-0.1,0c0,0,0,0-0.1,0c0,0,0,0-0.1,0c0,0,0,0,0,0c0,0,0,0-0.1,0c0,0,0,0,0,0c0,0,0,0-0.1,0.1
		c0,0,0,0,0,0c0,0,0,0-0.1,0.1c0,0,0,0,0,0c0,0,0,0.1-0.1,0.1c0,0,0,0,0,0c0,0,0,0,0,0c0,0,0,0,0,0C90,14.5,80.5,24,61.5,28.5
		l-26.7,6.3c-2.6,0.6-4.8,2.2-6.2,4.5c-1.4,2.3-1.8,5-1.2,7.6L30,58c0.6,2.6,2.2,4.8,4.5,6.2c2.3,1.4,4.9,1.8,7.5,1.2c0,0,0,0,0,0
		l5.8-1.4l10.7,29.4c1,2.7,3.8,4.2,6.6,3.6c0,0,0,0,0,0l5.6-1.3c1.6-0.4,2.9-1.4,3.7-2.8c0.8-1.4,0.9-3.1,0.3-4.6L64.6,60.2l4.1-1
		c0.1,0,0.1,0,0.1,0c18.9-4.4,31.6-0.1,41.5,4.7c0,0,0,0,0,0c0.1,0,0.1,0.1,0.2,0.1c0,0,0,0,0,0c0.1,0,0.1,0,0.2,0c0,0,0,0,0,0
		c0.1,0,0.1,0,0.2,0c0,0,0,0,0,0c0.1,0,0.1,0,0.2,0c0,0,0,0,0,0c0,0,0,0,0,0s0,0,0,0c0,0,0,0,0,0l2.8-0.7c1.1-0.3,2-0.9,2.6-1.9
		c0.6-1,0.8-2.1,0.5-3.2l-3.5-14.9C117.5,40.7,119.4,35.9,118.3,31.3z M72.3,89.2c0.3,0.8,0.2,1.7-0.2,2.4c-0.4,0.8-1.1,1.3-1.9,1.5
		l-5.6,1.3c0,0,0,0,0,0c-1.5,0.3-3-0.5-3.5-1.9L61,92.1l6.2-1.5c0.7-0.2,1.2-0.9,1-1.6c-0.2-0.7-0.9-1.2-1.6-1c0,0,0,0,0,0l-6.5,1.5
		l-9.5-26.1l11.4-2.7L72.3,89.2z M114.4,60c-0.2,0.3-0.6,0.6-1,0.7l-1.5,0.4l-6.6-28.2c-0.2-0.7-0.9-1.2-1.6-1c0,0,0,0,0,0
		c-0.7,0.2-1.2,0.9-1,1.6l6.3,26.7c-8.9-4-20.1-7.2-35.4-4.8L69.3,37c-0.2-0.7-0.9-1.2-1.6-1c0,0,0,0,0,0c-0.7,0.2-1.2,0.9-1,1.6
		L71,56c-0.9,0.2-1.8,0.4-2.8,0.6c-0.1,0-0.1,0-0.2,0l-26.7,6.3c0,0,0,0,0,0c-1.9,0.4-3.8,0.1-5.5-0.9c-1.7-1-2.8-2.6-3.3-4.5
		L30,46.2c-0.4-1.9-0.1-3.9,0.9-5.5s2.6-2.8,4.5-3.3l26.7-6.3c1-0.2,1.9-0.5,2.9-0.7l0.4,1.5c0.2,0.7,0.9,1.2,1.6,1c0,0,0,0,0,0
		c0.7-0.2,1.2-0.9,1-1.6l-0.4-1.7C82.4,25,90.9,17.2,97.1,9.6l2.3,9.9c0,0.1,0,0.1,0,0.2l0.6,2.6c0.2,0.7,0.9,1.2,1.6,1c0,0,0,0,0,0
		c0.7-0.2,1.2-0.9,1-1.6l-0.7-2.8c0-0.1,0-0.1,0-0.2L99.4,7.6l1.5-0.4c0,0,0,0,0,0c0.4-0.1,0.8,0,1.2,0.2c0.3,0.2,0.6,0.6,0.7,1
		l3.7,15.8c0,0,0,0,0,0.1l8.2,34.6C114.7,59.3,114.7,59.7,114.4,60z M113.1,40.4l-3.5-14.9c3,0.9,5.4,3.3,6.1,6.4
		C116.4,35.1,115.4,38.3,113.1,40.4z"/>
</g>
</svg>
