<?xml version="1.0" encoding="utf-8"?>
<!-- Generator: Adobe Illustrator 22.0.1, SVG Export Plug-In . SVG Version: 6.00 Build 0)  -->
<svg version="1.1" id="Layer_1" xmlns="http://www.w3.org/2000/svg" xmlns:xlink="http://www.w3.org/1999/xlink" x="0px" y="0px"
	 viewBox="0 0 146 116" style="enable-background:new 0 0 146 116;" xml:space="preserve">
<style type="text/css">
	.st0{opacity:0.28;fill:#8BCC3F;}
	.st1{opacity:0.47;fill:#BE4B50;}
	.st2{fill:#354052;}
	.st3{fill:#8BCC3F;}
	.st4{fill:#BFC7D2;}
	.st5{fill:#75AC35;}
	.st6{fill:#E9FFB3;}
	.st7{fill:#B9F268;}
	.st8{fill:#D8AD8F;}
	.st9{fill:#C19476;}
	.st10{fill:#A24223;}
	.st11{fill:#8B381E;}
	.st12{fill:#FEC007;}
</style>
<title>Icon 2</title>
<desc>Created with Sketch.</desc>
<g id="_x33_0---First-Touch-with-App" transform="translate(-717.000000, -265.000000)">
	<g id="Get-Started" transform="translate(205.000000, 214.000000)">
		<g id="_x32_" transform="translate(400.000000, 0.000000)">
			<g id="Icon-2" transform="translate(112.000000, 51.000000)">
				<path id="Base" class="st0" d="M43.9,101C28.9,91.2,19,74.2,19,55C19,24.6,43.6,0,74,0c30.4,0,55,24.6,55,55
					c0,19.2-9.9,36.2-24.9,46H43.9z"/>
				<path id="Lighter-Base" class="st1" d="M74,19c19.3,0,35,15.7,35,35S93.3,89,74,89S39,73.3,39,54S54.7,19,74,19"/>
				<path id="Lines" class="st2" d="M118.5,99h-94c-0.8,0-1.5,0.7-1.5,1.5s0.7,1.5,1.5,1.5h94c0.8,0,1.5-0.7,1.5-1.5
					S119.3,99,118.5,99 M123.5,99c-0.8,0-1.5,0.7-1.5,1.5s0.7,1.5,1.5,1.5s1.5-0.7,1.5-1.5S124.3,99,123.5,99"/>
				<path id="Lines_1_" class="st3" d="M93.5,106h-54c-0.8,0-1.5,0.7-1.5,1.5s0.7,1.5,1.5,1.5h54c0.8,0,1.5-0.7,1.5-1.5
					S94.3,106,93.5,106 M105.5,106h-7c-0.8,0-1.5,0.7-1.5,1.5s0.7,1.5,1.5,1.5h7c0.8,0,1.5-0.7,1.5-1.5S106.3,106,105.5,106
					 M83.5,113h-34c-0.8,0-1.5,0.7-1.5,1.5s0.7,1.5,1.5,1.5h34c0.8,0,1.5-0.7,1.5-1.5S84.3,113,83.5,113 M91.5,113h-3
					c-0.8,0-1.5,0.7-1.5,1.5s0.7,1.5,1.5,1.5h3c0.8,0,1.5-0.7,1.5-1.5S92.3,113,91.5,113"/>
				<path id="Decoration" class="st4" d="M138.5,4c-0.8,0-1.5,0.7-1.5,1.5s0.7,1.5,1.5,1.5s1.5-0.7,1.5-1.5S139.3,4,138.5,4 M1.5,41
					C0.7,41,0,41.7,0,42.5S0.7,44,1.5,44S3,43.3,3,42.5S2.3,41,1.5,41 M21,2h-1V1c0-0.6-0.4-1-1-1s-1,0.4-1,1v1h-1c-0.6,0-1,0.4-1,1
					s0.4,1,1,1h1v1c0,0.6,0.4,1,1,1s1-0.4,1-1V4h1c0.6,0,1-0.4,1-1S21.6,2,21,2 M8,71H7v-1c0-0.6-0.4-1-1-1s-1,0.4-1,1v1H4
					c-0.6,0-1,0.4-1,1s0.4,1,1,1h1v1c0,0.6,0.4,1,1,1s1-0.4,1-1v-1h1c0.6,0,1-0.4,1-1S8.6,71,8,71 M145,34h-1v-1c0-0.6-0.4-1-1-1
					s-1,0.4-1,1v1h-1c-0.6,0-1,0.4-1,1c0,0.6,0.4,1,1,1h1v1c0,0.6,0.4,1,1,1s1-0.4,1-1v-1h1c0.6,0,1-0.4,1-1
					C146,34.4,145.6,34,145,34"/>
			</g>
		</g>
	</g>
</g>
<g>
	<path class="st3" d="M109.2,34.4L49.9,58.3L39.3,32l-1.1-2.7c-0.6-1.4,0.1-3,1.5-3.6L93.9,3.9c1.4-0.6,3,0.1,3.6,1.5L108.2,32
		L109.2,34.4z"/>
	<g>
		<polygon class="st5" points="109.2,34.4 49.9,58.3 39.3,32 108.2,32 		"/>
		<path class="st5" d="M56.1,49.2c-0.5-1.3-1.7-2.1-3.1-2.1c-0.4,0-0.8,0.1-1.2,0.2l-2.6,1.1l-5.7-14.2l2.6-1.1
			c0.8-0.3,1.5-1,1.8-1.8c0.3-0.8,0.4-1.7,0-2.5l-1.1-2.6l42.3-17l1.1,2.6c0.5,1.3,1.7,2.1,3,2.1c0.4,0,0.8-0.1,1.2-0.2l2.6-1.1
			l5.7,14.2l-2.6,1.1c-0.8,0.3-1.5,1-1.8,1.8c-0.3,0.8-0.4,1.7,0,2.5l1.1,2.6l-42.3,17L56.1,49.2z"/>
	</g>
	<path class="st6" d="M95.5,32c0.1,0.4,0.2,0.9,0.4,1.3L58.7,48.2c-1.3-3.1-4.8-4.7-8-3.4l-3.6-8.9c1.8-0.7,3-2.2,3.6-3.9
		c0.4-1.3,0.4-2.8-0.2-4.1L87.6,13c1.3,3.1,4.8,4.7,8,3.4l3.6,8.9C96.5,26.4,95,29.2,95.5,32z"/>
	<path class="st7" d="M95.8,33.3L58.7,48.2c-1.3-3.1-4.8-4.7-8-3.4l-3.6-8.9c1.8-0.7,3-2.2,3.6-3.9h44.7
		C95.5,32.4,95.6,32.8,95.8,33.3z"/>
	<path class="st3" d="M78.4,32c-0.4,1.6-1.6,2.9-3.2,3.6c-2.8,1.1-5.9-0.2-7-3c-0.1-0.2-0.1-0.4-0.2-0.6c-0.7-2.6,0.6-5.4,3.2-6.4
		c2.8-1.1,5.9,0.2,7,3C78.6,29.7,78.7,30.9,78.4,32z"/>
	<path class="st5" d="M78.4,32c-0.4,1.6-1.6,2.9-3.2,3.6c-2.8,1.1-5.9-0.2-7-3c-0.1-0.2-0.1-0.4-0.2-0.6H78.4z"/>
	<path class="st8" d="M113.8,39.4V84c0,2.5-2,4.6-4.6,4.6H38.6c-2.5,0-4.6-2-4.6-4.6V39.4c0-2.5,2-4.6,4.6-4.6h70.7
		C111.8,34.8,113.8,36.9,113.8,39.4z"/>
	<g>
		<path class="st9" d="M113,85.1H42.3c-2.5,0-4.6-2-4.6-4.6V36c0-0.4,0-0.8,0.1-1.1c-2.2,0.3-3.9,2.2-3.9,4.5V84
			c0,2.5,2,4.6,4.6,4.6h70.7c2.1,0,3.9-1.5,4.4-3.4C113.5,85.1,113.3,85.1,113,85.1z"/>
		<path class="st9" d="M113.8,47.4V76H82.4c-4.7,0-8.6-3.9-8.6-8.6V56c0-4.7,3.9-8.6,8.6-8.6L113.8,47.4L113.8,47.4z"/>
	</g>
	<path class="st10" d="M113.8,50.2v22.9H82.4c-3.2,0-5.8-2.6-5.8-5.8V56c0-3.2,2.6-5.8,5.8-5.8L113.8,50.2L113.8,50.2z"/>
	<path class="st11" d="M87.5,68.7c-3.8,0-7-3.1-7-7s3.1-7,7-7c3.8,0,7,3.1,7,7C94.5,65.5,91.3,68.7,87.5,68.7z"/>
	<circle class="st12" cx="87.5" cy="61.7" r="4.1"/>
	<path d="M110.3,33.6L98.7,4.9c-0.4-1-1.2-1.8-2.2-2.2c-1-0.4-2.1-0.4-3.1,0L64.3,14.4c-0.7,0.3-1,1-0.7,1.7c0.3,0.7,1,1,1.7,0.7
		L94.4,5.1c0.4-0.1,0.8-0.1,1.1,0s0.7,0.4,0.8,0.8l11.1,27.7H97.1c0.1-0.2,0-0.5-0.1-0.8c-0.5-1.2-0.5-2.5,0-3.7
		c0.5-1.2,1.4-2.1,2.7-2.6c0.3-0.1,0.6-0.4,0.7-0.7c0.1-0.3,0.1-0.7,0-1l-3.6-8.9c-0.3-0.7-1-1-1.7-0.7c-2.5,1-5.3-0.2-6.3-2.7
		c-0.3-0.7-1-1-1.7-0.7L50.1,26.7c-0.7,0.3-1,1-0.7,1.7c0.7,1.8,0.3,3.8-1,5.2h-7.1l-1.9-4.7c-0.1-0.4-0.1-0.8,0-1.1
		c0.2-0.4,0.4-0.7,0.8-0.8l20.3-8.2c0.7-0.3,1-1,0.7-1.7c-0.3-0.7-1-1-1.7-0.7l-20.3,8.2c-1,0.4-1.8,1.2-2.2,2.2
		c-0.4,1-0.4,2.1,0,3.1l1.5,3.8c-3.2,0-5.8,2.6-5.8,5.8v24.2c0,0.7,0.6,1.3,1.3,1.3s1.3-0.6,1.3-1.3V39.4c0-1.8,1.5-3.3,3.3-3.3
		h70.7c1.8,0,3.3,1.5,3.3,3.3v9.6H82.4c-3.9,0-7,3.2-7,7v11.4c0,3.9,3.2,7,7,7h16.4c0.7,0,1.3-0.6,1.3-1.3c0-0.7-0.6-1.3-1.3-1.3
		H82.4c-2.5,0-4.5-2-4.5-4.5V56c0-2.5,2-4.5,4.5-4.5h30.1v20.3h-8.1c-0.7,0-1.3,0.6-1.3,1.3c0,0.7,0.6,1.3,1.3,1.3h8.1V84
		c0,1.8-1.5,3.3-3.3,3.3H38.6c-1.8,0-3.3-1.5-3.3-3.3V69.2c0-0.7-0.6-1.3-1.3-1.3s-1.3,0.6-1.3,1.3V84c0,3.2,2.6,5.8,5.8,5.8h70.7
		c3.2,0,5.8-2.6,5.8-5.8V39.4C115.1,36.5,113,34.1,110.3,33.6z M52.1,28.6l34.9-14c1.6,2.6,4.8,4,7.8,3.3l2.7,6.8
		c-1.3,0.8-2.3,2-2.9,3.4c-0.6,1.4-0.8,3-0.4,4.4l-2.6,1H79.1c0.8-1.7,1-3.7,0.2-5.5c-1.4-3.4-5.3-5.1-8.7-3.7
		c-3.4,1.4-5.1,5.3-3.7,8.7c0.1,0.2,0.1,0.3,0.2,0.5H51.5C52.2,32,52.5,30.3,52.1,28.6z M70.4,33.5c-0.4-0.4-0.8-0.9-1-1.5
		c-0.8-2.1,0.2-4.5,2.3-5.3c2.1-0.8,4.5,0.2,5.3,2.3c0.6,1.6,0.2,3.4-1,4.5H70.4z"/>
	<path d="M82.1,61.7c0,3,2.4,5.4,5.4,5.4c3,0,5.4-2.4,5.4-5.4c0-3-2.4-5.4-5.4-5.4C84.5,56.3,82.1,58.7,82.1,61.7z M90.3,61.7
		c0,1.6-1.3,2.9-2.9,2.9c-1.6,0-2.9-1.3-2.9-2.9c0-1.6,1.3-2.9,2.9-2.9C89,58.8,90.3,60.1,90.3,61.7z"/>
	<path d="M90,45.2h12.6c0.7,0,1.3-0.6,1.3-1.3s-0.6-1.3-1.3-1.3H90c-0.7,0-1.3,0.6-1.3,1.3S89.3,45.2,90,45.2z"/>
	<path d="M90,41.4h3.5c0.7,0,1.3-0.6,1.3-1.3s-0.6-1.3-1.3-1.3H90c-0.7,0-1.3,0.6-1.3,1.3S89.3,41.4,90,41.4z"/>
</g>
</svg>
