<?xml version="1.0" encoding="utf-8"?>
<!-- Generator: Adobe Illustrator 22.0.1, SVG Export Plug-In . SVG Version: 6.00 Build 0)  -->
<svg version="1.1" id="Layer_1" xmlns="http://www.w3.org/2000/svg" xmlns:xlink="http://www.w3.org/1999/xlink" x="0px" y="0px"
	 viewBox="0 0 146 116" style="enable-background:new 0 0 146 116;" xml:space="preserve">
<style type="text/css">
	.st0{opacity:0.42;fill:#FEDAC6;}
	.st1{opacity:0.7;fill:#FEDAC6;}
	.st2{fill:#354052;}
	.st3{fill:#FECB66;}
	.st4{fill:#BFC7D2;}
	.st5{fill:#FEDAC6;}
	.st6{fill:#F5C4B0;}
	.st7{fill:#DBDBDB;}
	.st8{fill:#EAEAEA;}
	.st9{fill:#2E6AA3;}
	.st10{fill:#BFBFBF;}
	.st11{fill:#F5AD76;}
</style>
<title>Icon 2</title>
<desc>Created with Sketch.</desc>
<g id="_x33_0---First-Touch-with-App" transform="translate(-717.000000, -265.000000)">
	<g id="Get-Started" transform="translate(205.000000, 214.000000)">
		<g id="_x32_" transform="translate(400.000000, 0.000000)">
			<g id="Icon-2" transform="translate(112.000000, 51.000000)">
				<path id="Base" class="st0" d="M43.9,101C28.9,91.2,19,74.2,19,55C19,24.6,43.6,0,74,0c30.4,0,55,24.6,55,55
					c0,19.2-9.9,36.2-24.9,46H43.9z"/>
				<path id="Lighter-Base" class="st1" d="M74,19c19.3,0,35,15.7,35,35S93.3,89,74,89S39,73.3,39,54S54.7,19,74,19"/>
				<path id="Lines" class="st2" d="M118.5,99h-94c-0.8,0-1.5,0.7-1.5,1.5s0.7,1.5,1.5,1.5h94c0.8,0,1.5-0.7,1.5-1.5
					S119.3,99,118.5,99 M123.5,99c-0.8,0-1.5,0.7-1.5,1.5s0.7,1.5,1.5,1.5s1.5-0.7,1.5-1.5S124.3,99,123.5,99"/>
				<path id="Lines_1_" class="st3" d="M93.5,106h-54c-0.8,0-1.5,0.7-1.5,1.5s0.7,1.5,1.5,1.5h54c0.8,0,1.5-0.7,1.5-1.5
					S94.3,106,93.5,106 M105.5,106h-7c-0.8,0-1.5,0.7-1.5,1.5s0.7,1.5,1.5,1.5h7c0.8,0,1.5-0.7,1.5-1.5S106.3,106,105.5,106
					 M83.5,113h-34c-0.8,0-1.5,0.7-1.5,1.5s0.7,1.5,1.5,1.5h34c0.8,0,1.5-0.7,1.5-1.5S84.3,113,83.5,113 M91.5,113h-3
					c-0.8,0-1.5,0.7-1.5,1.5s0.7,1.5,1.5,1.5h3c0.8,0,1.5-0.7,1.5-1.5S92.3,113,91.5,113"/>
				<path id="Decoration" class="st4" d="M138.5,4c-0.8,0-1.5,0.7-1.5,1.5s0.7,1.5,1.5,1.5s1.5-0.7,1.5-1.5S139.3,4,138.5,4 M1.5,41
					C0.7,41,0,41.7,0,42.5S0.7,44,1.5,44S3,43.3,3,42.5S2.3,41,1.5,41 M21,2h-1V1c0-0.6-0.4-1-1-1s-1,0.4-1,1v1h-1c-0.6,0-1,0.4-1,1
					s0.4,1,1,1h1v1c0,0.6,0.4,1,1,1s1-0.4,1-1V4h1c0.6,0,1-0.4,1-1S21.6,2,21,2 M8,71H7v-1c0-0.6-0.4-1-1-1s-1,0.4-1,1v1H4
					c-0.6,0-1,0.4-1,1s0.4,1,1,1h1v1c0,0.6,0.4,1,1,1s1-0.4,1-1v-1h1c0.6,0,1-0.4,1-1S8.6,71,8,71 M145,34h-1v-1c0-0.6-0.4-1-1-1
					s-1,0.4-1,1v1h-1c-0.6,0-1,0.4-1,1c0,0.6,0.4,1,1,1h1v1c0,0.6,0.4,1,1,1s1-0.4,1-1v-1h1c0.6,0,1-0.4,1-1
					C146,34.4,145.6,34,145,34"/>
			</g>
		</g>
	</g>
</g>
<g>
	<path class="st5" d="M90.3,32.3h-1.5v9.1h1.5c2.5,0,4.6-2,4.6-4.6S92.8,32.3,90.3,32.3z"/>
	<path class="st6" d="M52.4,36.9c0,2.5,2,4.6,4.6,4.6h1.5v-9.1h-1.5C54.4,32.3,52.4,34.3,52.4,36.9z"/>
	<path class="st3" d="M90.3,32.3l1.8-9.2c0.6-3.5-1.8-6.8-5.3-7.4c-0.4-0.1-0.7-0.1-1.1-0.1l0,0c-0.9-2.7-3.4-4.5-6.3-4.6h-18
		l-3-4.6L56.9,8c-4.2,4.2-4.2,11,0,15.2c0,0,0,0,0,0h27.3L90.3,32.3z"/>
	<path class="st7" d="M94.9,67.3l-11-1.5l-10.3,6l-10.3-5.9l-11,1.5c-6,0.8-10.5,5.9-10.5,12V96h63.7V79.4
		C105.5,73.3,101,68.1,94.9,67.3z"/>
	<polygon class="st5" points="83.9,65.9 82.7,65.7 82.7,55.1 64.5,55.1 64.5,65.7 63.3,65.9 73.6,71.8 	"/>
	<g>
		<polygon class="st8" points="64.5,77.8 73.6,71.8 64.5,65.7 61.5,65.7 		"/>
		<polygon class="st8" points="73.6,71.8 82.7,77.8 85.8,65.7 82.7,65.7 		"/>
	</g>
	<polyline class="st9" points="69.1,96 70.6,79.4 69.1,74.8 73.6,71.8 78.2,74.8 76.6,79.4 78.2,96 	"/>
	<path class="st6" d="M82.7,63.5v-8.4H64.5v8.4C71.3,66.4,75.9,66.4,82.7,63.5z"/>
	<path class="st10" d="M41.7,79.4V96h6.1V68.9C44.1,71,41.7,75,41.7,79.4z"/>
	<path class="st5" d="M90.3,32.3V41c0,4.3-1.1,8.5-3.2,12.2l0,0c-2.7,4.9-7.9,8-13.5,8l0,0c-5.6,0-10.8-3-13.5-8l0,0
		c-2.1-3.7-3.2-8-3.2-12.2V23.2h27.3L90.3,32.3z"/>
	<path class="st6" d="M63,23.2h-6.1V41c0,4.3,1.1,8.5,3.2,12.2c1.5,2.7,3.8,4.9,6.6,6.3C61.5,44.4,63,23.2,63,23.2z"/>
	<path class="st11" d="M54.1,13.1c-0.9,3.6,0.2,7.5,2.8,10.1h24.3C64,23.2,56.9,17.1,54.1,13.1z"/>
	<path d="M90.3,42.9h-1.5v-3h1.5c1.7,0,3-1.4,3-3s-1.4-3-3-3h-1.5v-3h1.5c3.3,0,6.1,2.7,6.1,6.1C96.4,40.2,93.7,42.9,90.3,42.9z"/>
	<path d="M58.4,42.9h-1.5c-3.3,0-6.1-2.7-6.1-6.1c0-3.3,2.7-6.1,6.1-6.1h1.5v3h-1.5c-1.7,0-3,1.4-3,3s1.4,3,3,3h1.5V42.9z"/>
	<path d="M75.1,46h-4.6c-0.5,0-0.9-0.2-1.2-0.6C69.1,45,69,44.5,69.1,44l3-10.6l2.9,0.8l-2.5,8.7h2.5L75.1,46L75.1,46z"/>
	<path d="M73.6,62.7C73.6,62.7,73.6,62.7,73.6,62.7c-6.2,0-11.9-3.3-14.9-8.7c-2.2-4-3.4-8.4-3.4-13V23.2c0-0.8,0.7-1.5,1.5-1.5
		h27.3c0.5,0,1,0.3,1.3,0.7l6.1,9.1c0.2,0.2,0.3,0.5,0.3,0.8V41c0,4.5-1.2,9-3.4,13C85.5,59.3,79.8,62.7,73.6,62.7z M73.6,59.6
		C73.6,59.6,73.6,59.6,73.6,59.6c5.1,0,9.7-2.7,12.2-7.2c1.9-3.5,3-7.5,3-11.5v-8.2l-5.4-8h-25V41c0,4,1,8,3,11.5
		C63.9,56.9,68.5,59.6,73.6,59.6C73.6,59.6,73.6,59.6,73.6,59.6z"/>
	<path d="M72.4,52h-1.8v-3h1.8c2.4,0,4.6-0.9,6.3-2.6l2.1,2.1C78.5,50.8,75.5,52,72.4,52z"/>
	<circle cx="64.5" cy="35.3" r="3"/>
	<circle cx="82.7" cy="35.3" r="3"/>
	<path d="M91.8,34.1l-3-0.5l1.8-10.7c0.2-1.3-0.1-2.6-0.8-3.7c-0.8-1.1-1.9-1.8-3.2-2c-0.3,0-0.6-0.1-0.8-0.1c0,0,0,0,0,0
		c-0.7,0-1.2-0.4-1.4-1c-0.7-2.1-2.7-3.5-4.9-3.5h-18c-0.5,0-1-0.3-1.3-0.7l-2-3L58,9.1c-1.7,1.7-2.7,4.1-2.7,6.5
		c0,2.5,1,4.8,2.7,6.5l-2.1,2.1c-4.8-4.8-4.8-12.5,0-17.3l1.5-1.5c0.3-0.3,0.8-0.5,1.2-0.4c0.5,0,0.9,0.3,1.1,0.7l2.6,3.9h17.2
		c3.2,0,6,1.8,7.4,4.6c0.1,0,0.2,0,0.3,0c2.1,0.4,3.9,1.5,5.2,3.2c1.2,1.7,1.7,3.8,1.4,5.9L91.8,34.1z"/>
	<path d="M43.3,96h-3V79.4c0-6.8,5.1-12.6,11.9-13.5L63,64.4v-6.3h3v7.6c0,0.8-0.6,1.4-1.3,1.5l-12.2,1.6c-5.3,0.7-9.2,5.2-9.2,10.5
		C43.3,79.4,43.3,96,43.3,96z"/>
	<path d="M107,96h-3V79.4c0-5.3-4-9.8-9.2-10.5l-12.2-1.6c-0.8-0.1-1.3-0.7-1.3-1.5v-7.6h3v6.3l10.9,1.4c6.8,0.9,11.9,6.7,11.9,13.5
		L107,96L107,96z"/>
	<rect x="52.4" y="83.9" width="3" height="12.1"/>
	<rect x="91.8" y="83.9" width="3" height="12.1"/>
	<path d="M64.5,79.4c-0.2,0-0.4,0-0.5-0.1c-0.5-0.2-0.8-0.6-0.9-1l-3-12.1l2.9-0.7l2.5,10.1l7.3-4.9l1.7,2.5l-9.1,6.1
		C65.1,79.3,64.8,79.4,64.5,79.4z"/>
	<path d="M73.6,73.3c-0.3,0-0.5-0.1-0.8-0.2L62.2,67l1.5-2.6l9.9,5.6l9.9-5.6L85,67l-10.6,6.1C74.1,73.2,73.9,73.3,73.6,73.3z"/>
	<path d="M82.7,79.4c-0.3,0-0.6-0.1-0.8-0.3L72.8,73l1.7-2.5l7.3,4.9l2.5-10.1l2.9,0.7l-3,12.1c-0.1,0.5-0.5,0.9-0.9,1
		C83.1,79.3,82.9,79.4,82.7,79.4z"/>
	<path d="M70.6,96.2l-3-0.3L69,79.5l-1.4-4.3l2.9-1l1.5,4.6c0.1,0.2,0.1,0.4,0.1,0.6L70.6,96.2z"/>
	<path d="M76.7,96.2l-1.5-16.7c0-0.2,0-0.4,0.1-0.6l1.5-4.6l2.9,1l-1.4,4.3l1.5,16.4L76.7,96.2z"/>
	<rect x="70.6" y="77.8" width="6.1" height="3"/>
</g>
</svg>
